<svg xmlns="http://www.w3.org/2000/svg" width="72" height="72" fill="currentColor" viewBox="0 0 72 72">
  <path d="M65.734 18.07c-1.754-1.166-3.547-2.286-5.314-3.438-2.62-1.712-5.226-3.45-7.853-5.15-1.727-1.119-3.927-.21-4.213 1.713-.2 1.31.453 2.199 1.493 2.884 1.473.968 2.94 1.949 4.427 2.884.526.33.74.724.76 1.35.12 3.174 1.453 5.702 4.34 7.217.96.5 1.166 1.02 1.16 2.041-.04 9.18.013 18.36.02 27.545 0 .711-.067 1.429-.2 2.12-.287 1.469-1.054 2.081-2.427 2.055-1.527-.026-2.267-.639-2.527-2.127a6.976 6.976 0 0 1-.1-1.231c0-8.357 0-16.706-.013-25.063 0-.592-.04-1.198-.14-1.784-.62-3.635-2.567-6.203-6.3-7.085-1.36-.323-2.82-.218-4.233-.303-.34-.02-.674-.033-1.06-.047v-.895c0-3.385-.067-6.77.02-10.148C43.634 8.35 42.187 7 39.9 7c-8.62.026-17.24.013-25.86.013h-.626c-1.987.119-3.027 1.1-3.174 3.056-.06.823-.073 1.652-.073 2.482 0 8.33-.013 16.66 0 24.99 0 5.755.033 11.504.053 17.259 0 1.396-.7 2.18-2.106 2.35-1.434.179-2.06.83-2.094 2.26a66.157 66.157 0 0 0 .014 3.45c.026.968.546 1.66 1.48 1.949.413.125.866.178 1.3.178 12 .006 23.993.006 35.993.006.187 0 .373.007.56 0 1.54-.111 2.333-.921 2.353-2.436.007-1.08 0-2.166-.053-3.246-.08-1.482-.573-1.976-2.08-2.167-1.34-.171-2.04-.941-2.04-2.245v-27.88c1.027 0 1.953-.02 2.88 0 2.22.052 3.28 1.08 3.393 3.265.014.204.007.415.007.62-.007 3.153-.02 6.301-.02 9.455 0 5.387-.02 10.767.053 16.153.027 2.08.647 4.05 2.094 5.65 1.786 1.962 4.073 2.62 6.686 2.436 2.247-.158 4.074-1.093 5.434-2.844 1.373-1.765 1.873-3.82 1.873-6.012.007-11.274.013-22.554.027-33.827 0-1.034.046-2.068.026-3.108 0-.264-.093-.639-.28-.758l.02.02h-.006Zm-27.807 8.428c-.033 1.791-.96 2.634-2.747 2.627-2.726-.013-5.453 0-8.173 0H18.62c-1.593 0-2.453-.843-2.46-2.423V15.317c0-1.686.84-2.529 2.587-2.535 3.473-.014 6.94 0 10.413 0 1.954 0 3.914-.053 5.867-.066 1.933-.007 2.873.876 2.893 2.818.027 2.483-.013 4.972-.013 7.454 0 1.172.04 2.344.013 3.517h.007v-.007Z"/>
</svg>
