<svg xmlns="http://www.w3.org/2000/svg" width="28" height="11" fill="currentColor" viewBox="0 0 28 11">
  <path d="M25.485 8.488v-.283l.093-.802h-.081c-.222.755-.909 1.003-1.829 1.003-1.107 0-1.957-.484-1.957-1.805V2.368a11.3 11.3 0 0 1 2.015 0v3.29c0 .896.326 1.026.804 1.026.57 0 .792-.142.955-.755V2.367c.675-.059 1.34-.059 2.015 0V8.23c0 2.016-1.083 2.771-3.355 2.771a16.27 16.27 0 0 1-2.038-.142c-.023-.46.035-1.167.152-1.615a9.74 9.74 0 0 0 1.724.153c.687 0 1.502-.153 1.502-.908Zm-6.838.059-.104-.92h-.082c-.175.72-.885 1.003-1.794 1.003-1.095 0-1.933-.496-1.933-1.77 0-1.686.897-2.04 2.166-2.04.594 0 1.013.036 1.55.107v-.272c0-.554-.35-.872-1.503-.872a10.5 10.5 0 0 0-1.712.165 6.961 6.961 0 0 1 0-1.557 11.98 11.98 0 0 1 2.34-.212c1.9 0 2.89.495 2.89 2.075v4.293a9.372 9.372 0 0 1-1.818 0ZM18.45 6.65v-.566a4.04 4.04 0 0 0-.838-.107c-.548 0-.862.07-.862.613 0 .543.314.578.71.578.466 0 .792-.141.99-.519Zm-6.871 1.838V.044a11.524 11.524 0 0 1 2.015 0v8.444c-.477.06-1.537.06-2.015 0Zm-1.261-3.915v1.415c-.746.071-2.516.071-3.483.012v.13c0 .73.373.896 1.397.896.653 0 1.153-.07 1.806-.188a7.066 7.066 0 0 1 0 1.568c-.85.153-1.514.224-2.33.224-1.759 0-2.888-.519-2.888-2.087V4.29c0-1.64 1.165-2.11 2.795-2.11 1.432 0 2.702.577 2.702 2.393Zm-1.957.283v-.307c0-.684-.373-.766-.77-.766-.395 0-.757.082-.757.755v.377l.688-.059h.838ZM0 8.488V2.297a15.4 15.4 0 0 1 1.805 0l.117 1.037h.081C2.19 2.52 2.935 2.18 4.03 2.18a10.94 10.94 0 0 1 0 1.745c-1.34 0-1.7.271-2.015 1.12v3.444c-.478.06-1.537.06-2.015 0Z"/>
</svg>
