<svg xmlns="http://www.w3.org/2000/svg" width="72" height="72" fill="none" viewBox="0 0 72 72">
  <path fill="#FF0420" d="M0 0h72v72H0z"/>
  <path fill="#fff" d="M22.401 48.185c-2.718 0-4.944-.638-6.677-1.915-1.715-1.296-2.572-3.156-2.572-5.546 0-.511.055-1.113.164-1.843.292-1.642.712-3.612 1.259-5.929 1.55-6.275 5.564-9.413 12.022-9.413 1.751 0 3.339.292 4.725.894 1.387.565 2.481 1.441 3.284 2.608.802 1.15 1.204 2.518 1.204 4.105 0 .474-.055 1.076-.164 1.806a74.052 74.052 0 0 1-1.24 5.93c-.804 3.119-2.172 5.472-4.142 7.023-1.952 1.532-4.58 2.28-7.863 2.28Zm.493-4.925c1.277 0 2.353-.384 3.247-1.131.912-.748 1.569-1.898 1.952-3.467.53-2.152.93-4.013 1.204-5.618a7.83 7.83 0 0 0 .146-1.478c0-2.08-1.076-3.12-3.247-3.12-1.277 0-2.372.383-3.284 1.131-.894.748-1.532 1.898-1.915 3.466-.42 1.533-.821 3.394-1.241 5.62-.091.455-.146.93-.146 1.44-.018 2.117 1.095 3.157 3.284 3.157Zm14.503 4.597c-.255 0-.438-.073-.584-.237a.89.89 0 0 1-.11-.62l4.726-22.257a.91.91 0 0 1 .383-.62c.2-.165.42-.238.657-.238h9.103c2.535 0 4.56.53 6.093 1.57 1.55 1.058 2.335 2.572 2.335 4.56 0 .566-.073 1.168-.2 1.788-.566 2.627-1.715 4.56-3.467 5.82-1.715 1.258-4.068 1.879-7.06 1.879h-4.615l-1.57 7.497a.98.98 0 0 1-.382.62c-.201.165-.42.238-.657.238h-4.652Zm12.113-13.08c.967 0 1.788-.256 2.5-.785.73-.529 1.204-1.277 1.44-2.262a5.5 5.5 0 0 0 .11-1.022c0-.656-.2-1.167-.584-1.514-.383-.365-1.058-.547-1.988-.547h-4.105l-1.295 6.13h3.922Z"/>
</svg>
