<svg xmlns="http://www.w3.org/2000/svg" width="72" height="72" fill="currentColor" viewBox="0 0 72 72">
  <path fill-rule="evenodd" d="M36.529 11c-13.531 0-24.5 10.969-24.5 24.5 0 4.48 1.2 8.674 3.297 12.284l.407.701-.363.725c-.994 1.981-2.458 5-3.62 7.614a59.696 59.696 0 0 0-1.312 3.14c.946-.172 2.174-.456 3.544-.805 3.053-.779 6.667-1.846 9.064-2.591l.629-.196.57.33A24.38 24.38 0 0 0 36.529 60c13.53 0 24.5-10.969 24.5-24.5S50.059 11 36.529 11Zm-27.5 24.5C9.029 20.312 21.34 8 36.529 8s27.5 12.312 27.5 27.5S51.717 63 36.529 63c-4.786 0-9.29-1.224-13.212-3.376-2.401.738-5.727 1.711-8.594 2.442-1.555.396-3.01.731-4.12.915-.545.09-1.068.156-1.5.16a3.068 3.068 0 0 1-.749-.075c-.194-.047-.832-.225-1.167-.895a1.95 1.95 0 0 1-.18-1.006c.014-.219.056-.438.101-.63.092-.393.242-.857.42-1.348.359-.991.888-2.251 1.48-3.582a197.02 197.02 0 0 1 3.324-7.027A27.384 27.384 0 0 1 9.03 35.5Z" clip-rule="evenodd"/>
  <path d="M36.769 19.5c1.804 0 3.351.323 4.642.968 1.305.645 2.303 1.489 2.992 2.53.69 1.027 1.034 2.12 1.034 3.278 0 1.408-.264 2.56-.792 3.454a8.081 8.081 0 0 1-1.98 2.244 141.65 141.65 0 0 1-2.354 1.782 8.46 8.46 0 0 0-2.002 2.024c-.528.777-.792 1.775-.792 2.992v1.518h-3.718v-1.738c0-1.423.257-2.603.77-3.542a8.717 8.717 0 0 1 1.958-2.398 36.169 36.169 0 0 1 2.332-1.826 10.31 10.31 0 0 0 1.958-1.848c.528-.66.792-1.474.792-2.442 0-1.247-.499-2.207-1.496-2.882-.997-.69-2.237-1.034-3.718-1.034-1.041 0-2.112.257-3.212.77-1.1.499-2.105 1.313-3.014 2.442l-2.64-1.936c1.29-1.51 2.706-2.61 4.246-3.3 1.555-.704 3.22-1.056 4.994-1.056Zm-1.012 25.388c.85 0 1.562.286 2.134.858.572.572.858 1.261.858 2.068 0 .821-.286 1.525-.858 2.112-.572.572-1.283.858-2.134.858-.821 0-1.51-.286-2.068-.858a2.958 2.958 0 0 1-.836-2.112c0-.807.279-1.496.836-2.068.557-.572 1.247-.858 2.068-.858Z"/>
</svg>
