<svg xmlns="http://www.w3.org/2000/svg" width="72" height="72" fill="currentColor" viewBox="0 0 72 72">
  <path d="m56.783 46.384-6.932 7.125a1.64 1.64 0 0 1-1.177.49H15.805a.825.825 0 0 1-.44-.126.76.76 0 0 1-.146-1.174l6.94-7.125a1.64 1.64 0 0 1 1.173-.487h32.865c.158 0 .312.045.44.127a.76.76 0 0 1 .146 1.174v-.004Zm-6.932-14.35a1.64 1.64 0 0 0-1.177-.49H15.805a.825.825 0 0 0-.44.126.76.76 0 0 0-.146 1.174l6.94 7.126a1.64 1.64 0 0 0 1.173.487h32.865a.825.825 0 0 0 .44-.127.76.76 0 0 0 .296-.34.722.722 0 0 0 .054-.438.777.777 0 0 0-.204-.396l-6.932-7.126v.004Zm-34.046-5.117h32.87c.22 0 .44-.045.64-.127a1.61 1.61 0 0 0 .536-.364l6.932-7.125a.755.755 0 0 0-.146-1.174.836.836 0 0 0-.44-.127H23.328a1.643 1.643 0 0 0-1.173.487l-6.94 7.134a.756.756 0 0 0 .146 1.174.825.825 0 0 0 .44.126l.004-.004Z"/>
</svg>
