<svg xmlns="http://www.w3.org/2000/svg" width="72" height="72" fill="none" viewBox="0 0 72 72">
  <path fill="#2775CA" d="M0 0h72v72H0z"/>
  <path fill="#fff" d="M44.41 40.835c0-4.46-2.676-5.99-8.028-6.626-3.823-.51-4.587-1.53-4.587-3.314s1.274-2.93 3.823-2.93c2.293 0 3.568.764 4.205 2.676.127.382.51.637.892.637h2.039c.51 0 .892-.383.892-.892v-.128a6.366 6.366 0 0 0-5.735-5.224v-3.059c0-.51-.382-.892-1.019-1.02h-1.911c-.51 0-.892.383-1.02 1.02v2.931c-3.823.51-6.244 3.059-6.244 6.244 0 4.206 2.549 5.862 7.9 6.5 3.569.636 4.716 1.401 4.716 3.44 0 2.04-1.785 3.44-4.206 3.44-3.313 0-4.46-1.401-4.842-3.313-.127-.51-.51-.764-.892-.764h-2.166a.871.871 0 0 0-.892.892v.127c.51 3.186 2.548 5.48 6.754 6.117v3.059c0 .509.382.891 1.019 1.019h1.911c.51 0 .892-.382 1.02-1.02V47.59c3.823-.637 6.371-3.313 6.371-6.754Z"/>
  <path fill="#fff" d="M29.501 54.215c-9.94-3.568-15.037-14.654-11.341-24.467 1.911-5.352 6.116-9.43 11.341-11.34.51-.256.765-.638.765-1.275v-1.784c0-.51-.255-.892-.765-1.02-.128 0-.382 0-.51.128-12.106 3.822-18.732 16.693-14.91 28.8 2.294 7.135 7.774 12.615 14.91 14.909.51.255 1.02 0 1.147-.51.128-.127.128-.255.128-.51v-1.784c0-.382-.383-.892-.765-1.147Zm13.508-39.758c-.51-.255-1.02 0-1.147.51-.128.127-.128.254-.128.51v1.783c0 .51.383 1.02.765 1.275 9.94 3.567 15.037 14.654 11.341 24.467-1.911 5.352-6.116 9.43-11.341 11.34-.51.256-.765.638-.765 1.275v1.784c0 .51.255.892.765 1.02.128 0 .382 0 .51-.128 12.106-3.822 18.732-16.693 14.91-28.8-2.294-7.263-7.902-12.743-14.91-15.036Z"/>
</svg>
